<?xml version="1.0" standalone="no"?>
<!DOCTYPE svg PUBLIC "-//W3C//DTD SVG 20010904//EN"
 "http://www.w3.org/TR/2001/REC-SVG-20010904/DTD/svg10.dtd">
<svg version="1.0" xmlns="http://www.w3.org/2000/svg"
 width="512.000000pt" height="512.000000pt" viewBox="0 0 512.000000 512.000000"
 preserveAspectRatio="xMidYMid meet">

<g transform="translate(0.000000,512.000000) scale(0.100000,-0.100000)"
fill="#000000" stroke="none">
<path d="M1210 4885 c-152 -31 -255 -88 -371 -204 -96 -96 -148 -179 -186
-299 -47 -147 -40 -337 18 -484 l20 -50 -93 -97 c-291 -300 -472 -624 -552
-982 -170 -767 153 -1535 859 -2041 349 -251 751 -407 1245 -485 146 -22 641
-26 790 -5 618 88 1150 333 1543 711 66 64 77 79 77 108 0 42 -30 73 -71 73
-25 0 -47 -15 -112 -76 -375 -353 -843 -571 -1417 -661 -164 -26 -635 -26
-800 0 -591 92 -1079 327 -1451 697 -224 224 -383 476 -472 750 -57 174 -60
153 34 271 107 136 357 384 490 487 106 81 119 96 119 133 0 28 -44 69 -74 69
-64 0 -428 -319 -589 -518 -62 -76 -65 -72 -66 71 -4 480 191 927 569 1307
133 134 139 155 89 298 -80 229 -32 453 135 617 109 109 221 160 372 172 217
16 428 -98 541 -292 77 -132 100 -141 288 -112 188 29 642 29 830 0 188 -29
211 -20 288 112 113 194 324 308 541 292 151 -12 263 -63 372 -172 167 -164
215 -388 135 -617 -50 -142 -44 -163 89 -297 379 -384 573 -828 569 -1308 -1
-143 -4 -147 -66 -71 -71 88 -321 330 -423 411 -858 681 -2003 859 -3020 471
-159 -61 -435 -200 -460 -231 -25 -32 -25 -64 -1 -94 28 -35 73 -29 171 25
544 300 1222 416 1846 316 607 -98 1142 -366 1583 -794 109 -107 251 -267 307
-347 l26 -38 -26 -91 c-53 -181 -134 -356 -243 -517 -63 -95 -71 -134 -34
-165 29 -23 76 -23 99 0 77 77 231 367 292 550 232 692 54 1401 -493 1968
l-98 102 20 50 c79 200 62 437 -44 629 -58 104 -197 237 -305 291 -236 117
-481 108 -715 -27 -78 -44 -200 -169 -248 -251 l-37 -66 -123 20 c-177 28
-657 28 -834 0 l-123 -20 -37 64 c-156 266 -472 408 -773 347z"/>
<path d="M1306 4319 c-26 -20 -26 -22 -26 -145 0 -69 5 -134 11 -145 25 -48
105 -44 128 7 17 37 14 229 -4 263 -23 46 -66 54 -109 20z"/>
<path d="M3732 4333 c-7 -3 -19 -18 -27 -33 -18 -35 -21 -226 -4 -264 23 -51
103 -55 128 -7 6 11 11 76 11 145 0 123 0 125 -26 145 -26 20 -55 25 -82 14z"/>
<path d="M2242 3847 c-37 -40 -29 -77 28 -131 161 -150 419 -150 580 0 58 55
67 95 27 132 -34 32 -70 28 -114 -12 -67 -59 -119 -80 -203 -80 -84 0 -136 21
-203 80 -45 41 -84 44 -115 11z"/>
<path d="M1115 3785 c-30 -30 -32 -64 -4 -99 20 -25 23 -26 140 -26 66 0 129
5 140 11 48 25 44 105 -7 128 -14 6 -74 11 -135 11 -103 0 -111 -1 -134 -25z"/>
<path d="M3733 3798 c-48 -23 -51 -103 -4 -127 11 -6 74 -11 140 -11 117 0
120 1 140 26 28 35 26 69 -4 99 -23 24 -30 25 -137 24 -62 0 -123 -5 -135 -11z"/>
</g>
</svg>
